<svg id="Calque_1" data-name="Calque 1" xmlns="http://www.w3.org/2000/svg" xmlns:xlink="http://www.w3.org/1999/xlink" viewBox="0 0 1080 1080"><defs><style>.cls-1{fill:#fff;}.cls-2{fill:url(#Dégradé_sans_nom_4);}.cls-3{fill:url(#Dégradé_sans_nom_4-2);}.cls-4{fill:url(#Dégradé_sans_nom_4-3);}.cls-5{fill:url(#Dégradé_sans_nom_4-4);}.cls-6{fill:url(#Dégradé_sans_nom_4-5);}.cls-7{fill:url(#Dégradé_sans_nom_4-6);}.cls-8{fill:url(#Dégradé_sans_nom_4-7);}.cls-9{fill:url(#Dégradé_sans_nom_4-8);}.cls-10{fill:url(#Dégradé_sans_nom_4-9);}.cls-11{fill:url(#Dégradé_sans_nom_4-10);}.cls-12{fill:#062f41;}.cls-13{fill:url(#Dégradé_sans_nom_4-11);}.cls-14{fill:url(#Dégradé_sans_nom_4-12);}.cls-15{fill:#135d69;}</style><linearGradient id="Dégradé_sans_nom_4" x1="125.21" y1="757.21" x2="125.21" y2="875.01" gradientUnits="userSpaceOnUse"><stop offset="0" stop-color="#135d69"/><stop offset="1" stop-color="#062f41"/></linearGradient><linearGradient id="Dégradé_sans_nom_4-2" x1="230.01" y1="757.21" x2="230.01" y2="875.01" xlink:href="#Dégradé_sans_nom_4"/><linearGradient id="Dégradé_sans_nom_4-3" x1="340.01" y1="757.21" x2="340.01" y2="875.01" xlink:href="#Dégradé_sans_nom_4"/><linearGradient id="Dégradé_sans_nom_4-4" x1="442.57" y1="757.21" x2="442.57" y2="875.01" xlink:href="#Dégradé_sans_nom_4"/><linearGradient id="Dégradé_sans_nom_4-5" x1="517.75" y1="757.21" x2="517.75" y2="875.01" xlink:href="#Dégradé_sans_nom_4"/><linearGradient id="Dégradé_sans_nom_4-6" x1="593.36" y1="757.21" x2="593.36" y2="875.01" xlink:href="#Dégradé_sans_nom_4"/><linearGradient id="Dégradé_sans_nom_4-7" x1="712.46" y1="757.21" x2="712.46" y2="875.01" xlink:href="#Dégradé_sans_nom_4"/><linearGradient id="Dégradé_sans_nom_4-8" x1="838.18" y1="757.21" x2="838.18" y2="875.01" xlink:href="#Dégradé_sans_nom_4"/><linearGradient id="Dégradé_sans_nom_4-9" x1="953.25" y1="757.21" x2="953.25" y2="875.01" xlink:href="#Dégradé_sans_nom_4"/><linearGradient id="Dégradé_sans_nom_4-10" x1="478.46" y1="439.91" x2="678.23" y2="439.91" xlink:href="#Dégradé_sans_nom_4"/><linearGradient id="Dégradé_sans_nom_4-11" x1="478.46" y1="510.85" x2="329.09" y2="510.85" xlink:href="#Dégradé_sans_nom_4"/><linearGradient id="Dégradé_sans_nom_4-12" x1="281.64" y1="567.12" x2="329.09" y2="567.12" xlink:href="#Dégradé_sans_nom_4"/></defs><title>logo safricode</title><path class="cls-1" d="M354.82,529.37a11.23,11.23,0,0,0-3.05-7.68Q346.54,516,337.51,516a20.83,20.83,0,0,0-9.87,2.45q-7.44,3.89-7.44,11a6.16,6.16,0,0,0,.61,2.56q2.07,4,13.77,8.53,14.52,5.73,17.44,7.07,14.75,7.44,14.75,18.41-.12,7.8-6.58,14.38-8.91,8.77-22.68,8.78a32.63,32.63,0,0,1-20.6-6.7q-8.66-7-8.66-16.46H318a11.34,11.34,0,0,0,3.66,7.8q6,5.61,15.85,5.61a25.66,25.66,0,0,0,11.58-2.68q7.92-4,7.93-10.73a5.54,5.54,0,0,0-.74-2.68q-2.07-4.15-13.89-8.78-14.38-5.61-17.19-7-14.76-7.32-14.75-18.16A20.93,20.93,0,0,1,316.3,515q8-8.78,21.21-8.78a28.89,28.89,0,0,1,18.29,6.1q8.77,6.94,8.77,17.07Z"/><path class="cls-1" d="M382.74,589.1H372.13l2.93-6.83,31.69-73.14,1.35-2.93h6.34l1.33,2.93,31.7,73.14,2.93,6.83H439.79l-1.34-2.93-27.19-62.78-27.18,62.78Z"/><path class="cls-1" d="M514.28,506.2V516H472.83v26.83h30v9.75h-30V589.1h-9.75V506.2h51.2Z"/><path class="cls-1" d="M590.23,582.88l1.95,6.22H581.94l-1-3.53a162.62,162.62,0,0,0-7.31-20.36,33.68,33.68,0,0,0-9.88-12.68h-24.5V589.1h-9.75V547.65l.12-36.45v-4.87h4.87l30.85-.13a25.22,25.22,0,0,1,16.58,5.85q8.52,7,8.53,17.44a21.23,21.23,0,0,1-1.46,7.68q-3.42,9.14-13,13.29Q583,558.74,590.23,582.88Zm-40.36-40.1h15.61a16.79,16.79,0,0,0,8.41-2.2q6.83-3.9,6.83-11.09a12.5,12.5,0,0,0-2.68-7.68Q573.53,516,565.36,516H539.27V542.9H550Z"/><path class="cls-1" d="M608.88,506.2h9.75v82.9h-9.75V506.2Z"/><path class="cls-1" d="M700.79,571.55a33,33,0,0,1-7.07,8.29q-11,9.25-24.13,9.26Q655,589,644.35,577.52q-11.22-12.19-11.22-29.87t11.34-30Q655,506.2,669.59,506.2a36,36,0,0,1,16.21,4q10.49,5.35,14.87,13.89l-8.78,4.39a20.18,20.18,0,0,0-4.51-5.73A26.26,26.26,0,0,0,669.59,516q-10.25.13-17.92,8.17-8.79,9.51-8.78,23.53a34.57,34.57,0,0,0,7,21.34q7.92,10.35,19.75,10.36a25.92,25.92,0,0,0,10-2.07q8.77-3.66,12.68-10.61Z"/><path class="cls-1" d="M725.54,517.66q10.61-11.46,25.24-11.46t25.35,11.58q11.22,12.19,11.22,29.87t-11.34,30q-10.6,11.46-25.23,11.46t-25.36-11.58q-11.22-12.19-11.21-29.87T725.54,517.66ZM731,569.11q7.92,10.25,19.75,10.24,10.25-.12,17.92-8.17,8.89-9.51,8.9-23.53a34.39,34.39,0,0,0-7.07-21.45Q762.6,516,750.78,516q-10.24.13-17.92,8.17-8.91,9.51-8.9,23.53A34.36,34.36,0,0,0,731,569.11Z"/><path class="cls-1" d="M807.46,589.1V506.2h32.19q13.53,1.35,22.67,12.56,10,12.32,8.54,28.89a39.94,39.94,0,0,1-8.17,28.53q-9.27,11.7-23,12.92H807.46Zm31.45-9.75q9.15-.86,15.49-8.66,7.8-9.63,6.7-23v-.36a32.2,32.2,0,0,0-4.87-20.24q-6.47-10.12-17.32-11.1H817.22v63.4Z"/><path class="cls-1" d="M949.49,506.2V516H900.72v26.83h35.6v9.75h-35.6v26.82h48.77v9.75H891V506.2h58.52Z"/><polygon class="cls-1" points="244.59 507.51 244.59 541.11 230.69 534.18 230.69 583.05 205.22 583.05 205.22 511.6 191.92 518.32 191.92 480.92 244.59 507.51"/><polygon class="cls-1" points="275.21 556.35 275.21 583.05 244.59 583.05 244.59 541.11 275.21 556.35"/><polygon class="cls-1" points="191.92 518.32 191.92 583.05 165.71 583.05 165.71 560.95 152.54 554.31 152.54 538.19 191.92 518.32"/><polygon class="cls-1" points="152.54 554.31 152.54 583.05 140.03 583.05 140.03 547.99 152.54 554.31"/><rect class="cls-1" x="274.66" y="505.71" width="1.11" height="93.68"/><rect class="cls-1" x="230.02" y="583.05" width="1.11" height="5.68"/><rect class="cls-1" x="191.37" y="583.05" width="1.11" height="5.68"/><rect class="cls-1" x="165.2" y="583.05" width="1.11" height="5.68"/><rect class="cls-1" x="191.37" y="588.73" width="1.11" height="10.66"/><rect class="cls-1" x="130.26" y="582.77" width="155.37" height="1.11"/><rect class="cls-1" x="130.26" y="588.18" width="155.37" height="1.11"/><rect class="cls-1" x="139.05" y="531.98" width="1.11" height="67.41"/><path class="cls-2" d="M149.8,790.12a16,16,0,0,0-4.32-10.91q-7.46-8.15-20.27-8.14a29.71,29.71,0,0,0-14,3.46q-10.56,5.55-10.56,15.59a8.89,8.89,0,0,0,.86,3.64q3,5.72,19.58,12.13,20.61,8.15,24.77,10.05,21,10.56,21,26.15-.17,11.08-9.35,20.44Q144.79,875,125.21,875q-17,0-29.28-9.53-12.3-9.87-12.3-23.39H97.49q.17,6.07,5.2,11.09,8.48,8,22.52,8a36.26,36.26,0,0,0,16.45-3.81q11.26-5.72,11.26-15.25a7.87,7.87,0,0,0-1-3.81q-2.94-5.88-19.74-12.47-20.44-8-24.43-9.87-21-10.41-21-25.82,0-11.25,8.32-20.44,11.43-12.46,30.14-12.47a41,41,0,0,1,26,8.66q12.48,9.87,12.47,24.25Z"/><path class="cls-3" d="M189.48,875H174.4l4.16-9.71,45-103.93,1.91-4.16h9l1.9,4.16,45,103.93,4.16,9.71H270.55l-1.91-4.16L230,781.64l-38.63,89.21Z"/><path class="cls-4" d="M376.39,757.21v13.86h-58.9v38.11h42.62V823H317.49v52H303.64V757.21h72.75Z"/><path class="cls-5" d="M484.32,866.17l2.77,8.84H472.53l-1.38-5q-5.72-18.87-10.39-28.93-5.55-11.59-14-18H411.9v52H398.05v-58.9l.17-51.8v-6.93h6.93l43.83-.17a35.81,35.81,0,0,1,23.55,8.31q12.14,9.88,12.13,24.78a29.92,29.92,0,0,1-2.08,10.91q-4.84,13-18.53,18.88Q474.09,831.88,484.32,866.17Zm-57.34-57h22.17a24,24,0,0,0,12-3.12q9.7-5.53,9.7-15.76A17.72,17.72,0,0,0,467,779.38q-6.4-8.31-18-8.31H411.9v38.28h15.25Z"/><path class="cls-6" d="M510.82,757.21h13.86V875H510.82V757.21Z"/><path class="cls-7" d="M641.43,850.06a46.87,46.87,0,0,1-10,11.78Q615.79,875,597.08,875q-20.77-.18-35.85-16.46-15.94-17.32-15.94-42.44,0-25.29,16.11-42.62,14.9-16.28,35.68-16.28a51.08,51.08,0,0,1,23,5.72q14.91,7.62,21.14,19.74l-12.47,6.24a29,29,0,0,0-6.41-8.14,37.35,37.35,0,0,0-25.3-9.7q-14.55.16-25.46,11.6-12.47,13.51-12.47,33.44A49.16,49.16,0,0,0,569,846.42q11.26,14.73,28.06,14.73a36.91,36.91,0,0,0,14.21-2.94q12.47-5.21,18-15.08Z"/><path class="cls-8" d="M676.6,773.49q15.07-16.28,35.86-16.28,20.79.18,36,16.46,15.93,17.33,15.94,42.44t-16.11,42.61Q733.24,875,712.46,875q-20.79-.18-36-16.46-15.95-17.32-15.94-42.44T676.6,773.49Zm7.8,73.11q11.25,14.55,28.06,14.55Q727,861,737.92,849.54q12.65-13.51,12.65-33.43a48.86,48.86,0,0,0-10.05-30.49q-11.26-14.55-28.06-14.55-14.55.16-25.47,11.6-12.65,13.51-12.64,33.44A48.8,48.8,0,0,0,684.4,846.6Z"/><path class="cls-9" d="M793,875V757.21h45.73Q858,759.12,871,775.05q14.2,17.51,12.13,41.06Q885,839,871.48,856.65,858.31,873.27,838.74,875H793Zm44.69-13.86q13-1.21,22-12.3,11.09-13.68,9.53-32.74v-.52a45.8,45.8,0,0,0-6.93-28.76q-9.18-14.37-24.6-15.76H806.86v90.08Z"/><path class="cls-10" d="M994.82,757.21v13.86H925.53v38.11h50.58V823H925.53v38.11h69.29V875H911.67V757.21h83.15Z"/><polygon class="cls-11" points="678.23 347.08 678.23 474.52 625.49 448.25 625.49 633.61 528.9 633.61 528.9 362.6 478.46 388.08 478.46 246.22 678.23 347.08"/><polygon class="cls-12" points="794.38 532.32 794.38 633.61 678.23 633.61 678.23 474.52 794.38 532.32"/><polygon class="cls-13" points="478.46 388.08 478.46 633.61 379.06 633.61 379.06 549.78 329.09 524.57 329.09 463.46 478.46 388.08"/><polygon class="cls-14" points="329.09 524.57 329.09 633.61 281.64 633.61 281.64 500.63 329.09 524.57"/><rect class="cls-15" x="792.29" y="340.25" width="4.2" height="355.32"/><rect class="cls-15" x="622.96" y="633.61" width="4.2" height="21.53"/><rect class="cls-15" x="476.36" y="633.61" width="4.2" height="21.53"/><rect class="cls-15" x="377.14" y="633.61" width="4.2" height="21.53"/><rect class="cls-15" x="476.36" y="655.14" width="4.2" height="40.43"/><rect class="cls-15" x="244.59" y="632.54" width="589.28" height="4.2"/><rect class="cls-15" x="244.59" y="653.04" width="589.28" height="4.2"/><rect class="cls-15" x="277.92" y="439.91" width="4.2" height="255.66"/></svg>